<?xml version="1.0" encoding="utf-8"?>
<!-- Svg Vector Icons : http://www.onlinewebfonts.com/icon -->
<!DOCTYPE svg PUBLIC "-//W3C//DTD SVG 1.1//EN" "http://www.w3.org/Graphics/SVG/1.1/DTD/svg11.dtd">
<svg version="1.1" xmlns="http://www.w3.org/2000/svg" xmlns:xlink="http://www.w3.org/1999/xlink" x="0px" y="0px" viewBox="0 0 256 256" enable-background="new 0 0 256 256" xml:space="preserve">
<metadata> Svg Vector Icons : http://www.onlinewebfonts.com/icon </metadata>
<g><g><path fill="#000000" d="M215.2,224.5h-127c0,0-40.7,0-54.2,0c-7.9,0-12.9-3.8-17.2-8.6c-4.4-4.8-6.8-11.1-6.8-17.6V57.7c0-14.4,11.8-26.2,26.2-26.2h179c14.4,0,26.2,11.8,26.2,26.2v51.6c0,0.1,0,0.1,0,0.2c0,0.1-0.5,13.4,4,22.1c1.2,2.4,0.3,5.3-2.1,6.5c-2.4,1.2-5.3,0.3-6.5-2.1c-5.5-10.6-5.1-25.3-5.1-26.9V57.7c0-9.2-7.4-16.6-16.6-16.6H36.2c-9.2,0-16.6,7.4-16.6,16.6v140.6c0,8.5,6.3,15.6,14.7,16.5l54,0h127c9.1,0,16.6-7.4,16.6-16.6l-0.1-26.4c0-0.5-0.4-5.1-5.1-11c0,0,0,0,0,0l-5.6-7.4l-30.3-40.1c-0.1-0.1-10.1-13.2-22.3-11.8c-9.9,1.1-19.7,11.7-28.2,30.6c-4.6,10.1-9,17.7-13.5,23c-4.6,5.4-9.2,8.7-14.3,9.9c-11.2,2.7-21-4.9-31.3-13.1l-1.3-1c-12-9.5-17.8-7.3-41,15.4c-1.9,1.9-4.9,1.8-6.8-0.1c-1.9-1.9-1.8-4.9,0.1-6.8c12.1-11.8,20.1-18.8,27.7-21.8c8.6-3.4,16.6-1.6,26,5.7l1.3,1c8.8,6.9,16.4,12.9,23,11.2c6.6-1.6,13.8-10.9,21.3-27.6c10.1-22.5,22.2-34.7,35.9-36.2c17.7-2,30.5,14.9,31,15.6l30.3,40.1l5.6,7.3c6.8,8.7,7.1,16,7.1,16.8v0l0.1,26.5C241.4,212.7,229.7,224.5,215.2,224.5z M75.2,107c-11,0-19.9-11-19.9-21.9c0-11,8.9-19.9,19.9-19.9c11,0,19.9,8.9,19.9,19.9C95.1,96,86.2,107,75.2,107z M75.2,74.8C69.6,74.8,65,79.4,65,85c0,5.6,4.6,12.3,10.3,12.3S85.5,90.7,85.5,85C85.5,79.4,80.9,74.8,75.2,74.8z"/></g></g>
</svg>